# xmcd
#
# Track frame offsets:
#	150
#	20386
#	37445
#	60547
#	79501
#	101130
#	129277
#	150861
#	172638
#	190696
#	207616
#	226148
#	250797
#
# Disc length: 3680 seconds
#
# Revision: 1
# Processed by: cddbd v1.5.2PL0 Copyright (c) Steve Scherf et al.
# Submitted via: EasyCDDAExtractor 12.1.0.1
#
DISCID=990e5e0d
DTITLE=Eric Benet - Lost In Time (Target)
DYEAR=2010
DGENRE=Soul
TTITLE0=Never Want To Live Without You
TTITLE1=Feel Good (feat Faith Evans)
TTITLE2=Sometimes I Cry
TTITLE3=Always A Reason
TTITLE4=Paid (feat Eddie Levert)
TTITLE5=Take It (feat Chrisette Michele) 
TTITLE6=Stir It Up
TTITLE7=Summer Love (feat India Benet)
TTITLE8=Lady (Bonus Track)
TTITLE9=Lost In Time
TTITLE10=Good Life (feat Ledisi)
TTITLE11=Last Train (Bonus Track)
TTITLE12=Something's Wrong
EXTD=
EXTT0=
EXTT1=
EXTT2=
EXTT3=
EXTT4=
EXTT5=
EXTT6=
EXTT7=
EXTT8=
EXTT9=
EXTT10=
EXTT11=
EXTT12=
PLAYORDER=
